----------------------------------------------------------------------------------------
             The thing 1982 DVDRip x264 AC3 Multisubs nekanilla
________________________________________________________________________________________

---------------------------------------INFO---------------------------------------------

Movie name: The thing
Country and year of production: USA / 1982
Speech language / subtitle: English / Greek, English, French, Hebrew, Portuguese, Slovenian, Spanish, Turkish SRT
Genre:  Horror | Mystery | Sci-Fi  
Movie Length: 109 minutes
Writer: Bill Lancaster,  John W. Campbell Jr.
Directed by: John Carpenter 

________________________________________________________________________________________

---------------------------------------PLOT---------------------------------------------

An American scientific expedition to the frozen wastes of the Antarctic is interrupted by a group of seemingly mad Norwegians pursuing and shooting a dog. The helicopter pursuing the dog explodes, eventually leaving no explanation for the chase. During the night, the dog mutates and attacks other dogs in the cage and members of the team that investigate. The team soon realizes that an alien life-form with the ability to take over other bodies is on the loose and they don't know who may already have been taken over. 
Written by Goth  

________________________________________________________________________________________

---------------------------------------CAST---------------------------------------------

Kurt Russell as MacReady
Wilford Brimley as Blair
Keith David as Childs
Donald Moffat as Garry
Richard Masur as Clark
David Clennon as Palmer
Charles Hallahan as Norris
Joel Polis as Fuchs
T.K. Carter as Nauls
Richard Dysart as Copper
Thomas G. Waites as Windows
Peter Maloney as Bennings
Norbert Weisser as Norwegian
Larry J. Franco as Norwegian Passenger with Rifle
________________________________________________________________________________________

------------------------------------MEDIA INFO------------------------------------------
                          
                            Source: PAL DVD
            
                            Rip   : By   nekanilla

                                 Includes sample
General
Complete name                  : The thing 1982 DVDRip x264 AC3The thing 1982 DVDRip x264 AC3.mkv
Format                         : Matroska
Format version                 : Version 2
File size                      : 1.19 GiB
Duration                       : 1h 44mn
Overall bit rate               : 1 639 Kbps
Writing application            : HandBrake rev3736
Writing library                : libmkv 0.6.4.1

Video
ID                             : 1
Format                         : AVC
Format/Info                    : Advanced Video Codec
Format profile                 : High@L3.0
Format settings, CABAC         : Yes
Format settings, ReFrames      : 9 frames
Codec ID                       : V_MPEG4/ISO/AVC
Duration                       : 1h 44mn
Bit rate                       : 1 250 Kbps
Width                          : 720 pixels
Height                         : 304 pixels
Display aspect ratio           : 2.35:1
Frame rate                     : 25.000 fps
Color space                    : YUV
Chroma subsampling             : 4:2:0
Bit depth                      : 8 bits
Scan type                      : Progressive
Bits/(Pixel*Frame)             : 0.228
Stream size                    : 910 MiB (75%)
Writing library                : x264 core 112
Encoding settings              : cabac=1 / ref=9 / deblock=1:-2:-2 / analyse=0x3:0x133 / me=umh / subme=9 / psy=1 / psy_rd=1.00:0.00 / mixed_ref=1 / me_range=24 / chroma_me=1 / trellis=2 / 8x8dct=1 / cqm=0 / deadzone=21,11 / fast_pskip=0 / chroma_qp_offset=-2 / threads=6 / sliced_threads=0 / nr=0 / decimate=1 / interlaced=0 / constrained_intra=0 / bframes=6 / b_pyramid=2 / b_adapt=2 / b_bias=0 / direct=3 / weightb=1 / open_gop=0 / weightp=2 / keyint=250 / keyint_min=25 / scenecut=40 / intra_refresh=0 / rc_lookahead=50 / rc=2pass / mbtree=1 / bitrate=1250 / ratetol=1.0 / qcomp=0.60 / qpmin=3 / qpmax=51 / qpstep=4 / cplxblur=20.0 / qblur=0.5 / ip_ratio=1.40 / aq=1:1.20
Language                       : English
Default                        : Yes
Forced                         : No
Color primaries                : BT.601-6 525, BT.1358 525, BT.1700 NTSC, SMPTE 170M
Transfer characteristics       : BT.709-5, BT.1361
Matrix coefficients            : BT.601-6 525, BT.1358 525, BT.1700 NTSC, SMPTE 170M

Audio
ID                             : 2
Format                         : AC-3
Format/Info                    : Audio Coding 3
Mode extension                 : CM (complete main)
Codec ID                       : A_AC3
Duration                       : 1h 44mn
Bit rate mode                  : Constant
Bit rate                       : 384 Kbps
Channel(s)                     : 6 channels
Channel positions              : Front: L C R, Side: L R, LFE
Sampling rate                  : 48.0 KHz
Bit depth                      : 16 bits
Compression mode               : Lossy
Stream size                    : 286 MiB (23%)
Language                       : English
Default                        : Yes
Forced                         : No
________________________________________________________________________________________

________________________________________________________________________________________

-----------------------------------SCREENSHOTS------------------------------------------
                          http://i.imgur.com/mJbBJFp.png  
                          http://i.imgur.com/hogJpy0.png
                          http://i.imgur.com/rl93bmy.png
                          http://i.imgur.com/8JosBfx.png
----------------------------------------------------------------------------------------
________________________________________________________________________________________